<svg width="177" height="148" viewBox="0 0 177 148" fill="none" xmlns="http://www.w3.org/2000/svg">
<circle cx="89.9668" cy="60.5" r="60" fill="#D6F0F4"/>
<circle cx="60.5" cy="84.5" r="59.5" stroke="#84D1DD" stroke-linecap="round" stroke-dasharray="4 4"/>
<rect x="61.5" y="71.5" width="102" height="68" fill="white"/>
<circle cx="112" cy="53" r="27.5" fill="white"/>
<path d="M156.5 67.5H136.5C135.3 67.5 134.5 68.3 134.5 69.5C134.5 70.7 135.3 71.5 136.5 71.5H156.5C159.9 71.5 162.5 74.1 162.5 77.5V81.5H132.3C131.1 81.5 130.3 82.3 130.3 83.5C130.3 84.7 131.1 85.5 132.3 85.5H162.5V97.5H62.5V85.5H137.5C138.7 85.5 139.5 84.7 139.5 83.5C139.5 82.3 138.7 81.5 137.5 81.5H62.5V77.5C62.5 74.1 65.1 71.5 68.5 71.5H89C90.2 71.5 91 70.7 91 69.5C91 68.3 90.2 67.5 89 67.5H68.5C62.9 67.5 58.5 71.9 58.5 77.5V133.5C58.5 139.1 62.9 143.5 68.5 143.5H156.5C162.1 143.5 166.5 139.1 166.5 133.5V77.5C166.5 71.9 162.1 67.5 156.5 67.5ZM156.5 139.5H68.5C65.1 139.5 62.5 136.9 62.5 133.5V101.5H162.5V133.5C162.5 136.9 159.9 139.5 156.5 139.5Z" fill="#268695"/>
<path d="M112.5 83.5C95.9 83.5 82.5 70.1 82.5 53.5C82.5 36.9 95.9 23.5 112.5 23.5C129.1 23.5 142.5 36.9 142.5 53.5C142.5 70.1 129.1 83.5 112.5 83.5ZM112.5 27.5C98.1 27.5 86.5 39.1 86.5 53.5C86.5 67.9 98.1 79.5 112.5 79.5C126.9 79.5 138.5 67.9 138.5 53.5C138.5 39.1 126.9 27.5 112.5 27.5Z" fill="#FAA859"/>
<path d="M114.5 51.7V41.7C117.9 42.3 120.5 44.3 120.5 46.5C120.5 48.7 121.3 48.5 122.5 48.5C123.7 48.5 124.5 47.7 124.5 46.5C124.5 41.9 120.3 38.3 114.5 37.7V35.5C114.5 34.3 113.7 33.5 112.5 33.5C111.3 33.5 110.5 34.3 110.5 35.5V37.7C104.7 38.3 100.5 42.1 100.5 46.5C100.5 50.9 104.7 54.7 110.5 55.3V65.3C107.1 64.7 104.5 62.7 104.5 60.5C104.5 58.3 103.7 58.5 102.5 58.5C101.3 58.5 100.5 59.3 100.5 60.5C100.5 65.1 104.7 68.7 110.5 69.3V71.5C110.5 72.7 111.3 73.5 112.5 73.5C113.7 73.5 114.5 72.7 114.5 71.5V69.3C120.3 68.7 124.5 64.9 124.5 60.5C124.5 56.1 120.3 52.3 114.5 51.7ZM104.5 46.5C104.5 44.3 107.1 42.3 110.5 41.7V51.3C107.1 50.7 104.5 48.7 104.5 46.5ZM114.5 65.3V55.7C117.9 56.3 120.5 58.3 120.5 60.5C120.5 62.7 117.9 64.7 114.5 65.3Z" fill="#FAA859"/>
<path d="M146.5 133.5C140.9 133.5 136.5 129.1 136.5 123.5C136.5 117.9 140.9 113.5 146.5 113.5C152.1 113.5 156.5 117.9 156.5 123.5C156.5 129.1 152.1 133.5 146.5 133.5ZM146.5 117.5C143.1 117.5 140.5 120.1 140.5 123.5C140.5 126.9 143.1 129.5 146.5 129.5C149.9 129.5 152.5 126.9 152.5 123.5C152.5 120.1 149.9 117.5 146.5 117.5Z" fill="#FAA859"/>
<path d="M94.5 131.5H74.5C73.3 131.5 72.5 130.7 72.5 129.5C72.5 128.3 73.3 127.5 74.5 127.5H94.5C95.7 127.5 96.5 128.3 96.5 129.5C96.5 130.7 95.7 131.5 94.5 131.5Z" fill="#FAA859"/>
</svg>
